<mxfile host="app.diagrams.net" modified="2023-06-01T12:17:28.731Z" agent="Mozilla/5.0 (Windows NT 10.0; Win64; x64) AppleWebKit/537.36 (KHTML, like Gecko) Chrome/113.0.0.0 Safari/537.36" etag="ZbkRH3KpXzA7EPc9Yzkj" version="21.3.5" type="github">
  <diagram id="6IpWRTOvNhz4fQDFHxwE" name="Page-1">
    <mxGraphModel dx="1729" dy="989" grid="1" gridSize="10" guides="0" tooltips="1" connect="1" arrows="1" fold="1" page="1" pageScale="1" pageWidth="850" pageHeight="1100" math="0" shadow="0">
      <root>
        <mxCell id="0" />
        <mxCell id="1" parent="0" />
        <mxCell id="fXu-zx2hqorw0dzWZYp2-77" value="Asana(&lt;b&gt;Animators_Hub&lt;/b&gt;)&amp;nbsp;" style="rounded=1;whiteSpace=wrap;html=1;fillColor=#e6d0de;strokeColor=#996185;shadow=1;gradientColor=#d5739d;" parent="1" vertex="1">
          <mxGeometry x="960" y="310" width="154" height="90" as="geometry" />
        </mxCell>
        <mxCell id="vcqUUj8RtbL1T8IDj6Kx-13" value="Actor" style="shape=umlActor;verticalLabelPosition=bottom;verticalAlign=top;html=1;outlineConnect=0;noLabel=1;fillColor=#fad9d5;strokeColor=#ae4132;" parent="1" vertex="1">
          <mxGeometry x="650" y="1380" width="30" height="60" as="geometry" />
        </mxCell>
        <mxCell id="oM6ZGW8Rz1AFaY1xYlf1-1" value="Asana(&lt;b&gt;Animation&lt;/b&gt;)&amp;nbsp;" style="rounded=1;whiteSpace=wrap;html=1;fillColor=#e6d0de;strokeColor=#996185;gradientColor=#d5739d;shadow=1;" parent="1" vertex="1">
          <mxGeometry x="1240" y="310" width="154" height="90" as="geometry" />
        </mxCell>
        <mxCell id="aH7YUtAxmmMZdRpmc2YQ-1" value="Asana(&lt;b&gt;Sound&lt;/b&gt;)&amp;nbsp;" style="rounded=1;whiteSpace=wrap;html=1;fillColor=#f8cecc;strokeColor=#b85450;gradientColor=#ea6b66;shadow=1;" vertex="1" parent="1">
          <mxGeometry x="1056" y="440" width="240" height="120" as="geometry" />
        </mxCell>
        <mxCell id="aH7YUtAxmmMZdRpmc2YQ-3" value="" style="endArrow=classic;html=1;rounded=0;exitX=0;exitY=0.5;exitDx=0;exitDy=0;entryX=0;entryY=0.5;entryDx=0;entryDy=0;" edge="1" parent="1" source="fXu-zx2hqorw0dzWZYp2-77" target="aH7YUtAxmmMZdRpmc2YQ-1">
          <mxGeometry relative="1" as="geometry">
            <mxPoint x="960" y="560" as="sourcePoint" />
            <mxPoint x="1060" y="560" as="targetPoint" />
            <Array as="points">
              <mxPoint x="830" y="355" />
              <mxPoint x="830" y="500" />
            </Array>
          </mxGeometry>
        </mxCell>
        <mxCell id="aH7YUtAxmmMZdRpmc2YQ-4" value="" style="shape=message;html=1;outlineConnect=0;" vertex="1" parent="aH7YUtAxmmMZdRpmc2YQ-3">
          <mxGeometry width="20" height="14" relative="1" as="geometry">
            <mxPoint x="-10" y="-7" as="offset" />
          </mxGeometry>
        </mxCell>
        <mxCell id="aH7YUtAxmmMZdRpmc2YQ-5" value="&lt;b&gt;&lt;i&gt;Automatically from &quot;Ready for sound&quot; column to &quot;X loops&quot; column&lt;/i&gt;&lt;/b&gt;" style="text;html=1;strokeColor=none;fillColor=none;align=center;verticalAlign=middle;whiteSpace=wrap;rounded=0;" vertex="1" parent="1">
          <mxGeometry x="716" y="410" width="230" height="30" as="geometry" />
        </mxCell>
        <mxCell id="aH7YUtAxmmMZdRpmc2YQ-6" value="&lt;b&gt;&lt;i&gt;Automatically from &quot;Ready for sound&quot; column to &quot;To do&quot; column&lt;/i&gt;&lt;/b&gt;" style="text;html=1;strokeColor=none;fillColor=none;align=center;verticalAlign=middle;whiteSpace=wrap;rounded=0;" vertex="1" parent="1">
          <mxGeometry x="1398" y="410" width="230" height="30" as="geometry" />
        </mxCell>
        <mxCell id="aH7YUtAxmmMZdRpmc2YQ-8" value="" style="endArrow=classic;html=1;rounded=0;exitX=1;exitY=0.5;exitDx=0;exitDy=0;entryX=1;entryY=0.5;entryDx=0;entryDy=0;" edge="1" parent="1" source="oM6ZGW8Rz1AFaY1xYlf1-1" target="aH7YUtAxmmMZdRpmc2YQ-1">
          <mxGeometry relative="1" as="geometry">
            <mxPoint x="1020" y="660" as="sourcePoint" />
            <mxPoint x="1120" y="660" as="targetPoint" />
            <Array as="points">
              <mxPoint x="1510" y="355" />
              <mxPoint x="1510" y="500" />
            </Array>
          </mxGeometry>
        </mxCell>
        <mxCell id="aH7YUtAxmmMZdRpmc2YQ-9" value="" style="shape=message;html=1;outlineConnect=0;" vertex="1" parent="aH7YUtAxmmMZdRpmc2YQ-8">
          <mxGeometry width="20" height="14" relative="1" as="geometry">
            <mxPoint x="-10" y="-7" as="offset" />
          </mxGeometry>
        </mxCell>
        <mxCell id="aH7YUtAxmmMZdRpmc2YQ-12" value="Actor" style="shape=umlActor;verticalLabelPosition=bottom;verticalAlign=top;html=1;outlineConnect=0;noLabel=1;fillColor=#fad9d5;strokeColor=#ae4132;" vertex="1" parent="1">
          <mxGeometry x="950" y="790" width="30" height="60" as="geometry" />
        </mxCell>
        <mxCell id="aH7YUtAxmmMZdRpmc2YQ-13" value="" style="endArrow=classic;html=1;rounded=0;exitX=0.5;exitY=1;exitDx=0;exitDy=0;" edge="1" parent="1">
          <mxGeometry width="50" height="50" relative="1" as="geometry">
            <mxPoint x="1171" y="560" as="sourcePoint" />
            <mxPoint x="1171" y="760" as="targetPoint" />
          </mxGeometry>
        </mxCell>
        <mxCell id="aH7YUtAxmmMZdRpmc2YQ-14" value="&lt;b&gt;Game designer &lt;/b&gt;can split Tasks from Milestone with Sound designers or they can do it independently after general agreement &lt;b&gt;[all the tasks should have dependencies to current Milestone]&lt;/b&gt;" style="rounded=0;whiteSpace=wrap;html=1;shadow=1;" vertex="1" parent="1">
          <mxGeometry x="1050" y="770" width="280" height="100" as="geometry" />
        </mxCell>
        <mxCell id="aH7YUtAxmmMZdRpmc2YQ-15" value="&lt;b&gt;Game designer&lt;/b&gt;" style="text;html=1;strokeColor=none;fillColor=none;align=center;verticalAlign=middle;whiteSpace=wrap;rounded=0;" vertex="1" parent="1">
          <mxGeometry x="925" y="853" width="90" height="30" as="geometry" />
        </mxCell>
        <mxCell id="aH7YUtAxmmMZdRpmc2YQ-16" value="&lt;b&gt;Game designer &lt;/b&gt;can assign tasks for future Releases with according&amp;nbsp; Epic &quot;&lt;b&gt;For future Releases&lt;/b&gt;&quot;" style="rounded=0;whiteSpace=wrap;html=1;shadow=1;" vertex="1" parent="1">
          <mxGeometry x="580" y="768" width="280" height="100" as="geometry" />
        </mxCell>
        <mxCell id="aH7YUtAxmmMZdRpmc2YQ-17" value="" style="endArrow=classic;html=1;rounded=0;" edge="1" parent="1" source="aH7YUtAxmmMZdRpmc2YQ-12">
          <mxGeometry width="50" height="50" relative="1" as="geometry">
            <mxPoint x="1430" y="860" as="sourcePoint" />
            <mxPoint x="1050" y="820" as="targetPoint" />
          </mxGeometry>
        </mxCell>
        <mxCell id="aH7YUtAxmmMZdRpmc2YQ-18" value="" style="endArrow=classic;html=1;rounded=0;" edge="1" parent="1" source="aH7YUtAxmmMZdRpmc2YQ-12" target="aH7YUtAxmmMZdRpmc2YQ-16">
          <mxGeometry width="50" height="50" relative="1" as="geometry">
            <mxPoint x="770" y="710" as="sourcePoint" />
            <mxPoint x="820" y="660" as="targetPoint" />
          </mxGeometry>
        </mxCell>
        <mxCell id="aH7YUtAxmmMZdRpmc2YQ-19" value="" style="shape=partialRectangle;whiteSpace=wrap;html=1;bottom=1;right=1;left=1;top=0;fillColor=none;routingCenterX=-0.5;" vertex="1" parent="1">
          <mxGeometry x="700" y="870" width="510" height="110" as="geometry" />
        </mxCell>
        <mxCell id="aH7YUtAxmmMZdRpmc2YQ-21" value="All&amp;nbsp; the finished tasks will move to column&lt;b&gt; &quot;Review&quot;&amp;nbsp; and Game Designer &lt;/b&gt;provide the feedback to &lt;b&gt;Sound Designers&lt;/b&gt;" style="rounded=0;whiteSpace=wrap;html=1;shadow=1;" vertex="1" parent="1">
          <mxGeometry x="820" y="930" width="280" height="100" as="geometry" />
        </mxCell>
        <mxCell id="aH7YUtAxmmMZdRpmc2YQ-22" value="" style="endArrow=classic;html=1;rounded=0;entryX=0.5;entryY=0;entryDx=0;entryDy=0;" edge="1" parent="1" target="aH7YUtAxmmMZdRpmc2YQ-21">
          <mxGeometry width="50" height="50" relative="1" as="geometry">
            <mxPoint x="960" y="870" as="sourcePoint" />
            <mxPoint x="1480" y="970" as="targetPoint" />
          </mxGeometry>
        </mxCell>
        <mxCell id="aH7YUtAxmmMZdRpmc2YQ-23" value="If task has good review &lt;b&gt;Game Gesigner &lt;/b&gt;move task to &lt;b&gt;&quot;Ready for Development&quot; &lt;/b&gt;colum with automatically PM assigne" style="rounded=0;whiteSpace=wrap;html=1;shadow=1;" vertex="1" parent="1">
          <mxGeometry x="820" y="1120" width="280" height="100" as="geometry" />
        </mxCell>
        <mxCell id="aH7YUtAxmmMZdRpmc2YQ-24" value="" style="endArrow=classic;html=1;rounded=0;exitX=0.5;exitY=1;exitDx=0;exitDy=0;entryX=0.5;entryY=0;entryDx=0;entryDy=0;" edge="1" parent="1" source="aH7YUtAxmmMZdRpmc2YQ-21" target="aH7YUtAxmmMZdRpmc2YQ-23">
          <mxGeometry width="50" height="50" relative="1" as="geometry">
            <mxPoint x="1290" y="1140" as="sourcePoint" />
            <mxPoint x="1340" y="1090" as="targetPoint" />
          </mxGeometry>
        </mxCell>
        <mxCell id="aH7YUtAxmmMZdRpmc2YQ-25" value="&lt;b&gt;Project Manager&lt;/b&gt;" style="text;html=1;strokeColor=none;fillColor=none;align=center;verticalAlign=middle;whiteSpace=wrap;rounded=0;" vertex="1" parent="1">
          <mxGeometry x="620" y="1440" width="100" height="30" as="geometry" />
        </mxCell>
        <mxCell id="aH7YUtAxmmMZdRpmc2YQ-26" value="PM check the dependencies to current Milestone and Review the tasks.&amp;nbsp;" style="rounded=0;whiteSpace=wrap;html=1;shadow=1;" vertex="1" parent="1">
          <mxGeometry x="820" y="1300" width="280" height="90" as="geometry" />
        </mxCell>
        <mxCell id="aH7YUtAxmmMZdRpmc2YQ-27" value="" style="endArrow=classic;html=1;rounded=0;" edge="1" parent="1" target="aH7YUtAxmmMZdRpmc2YQ-26">
          <mxGeometry width="50" height="50" relative="1" as="geometry">
            <mxPoint x="960" y="1230" as="sourcePoint" />
            <mxPoint x="1000" y="1170" as="targetPoint" />
          </mxGeometry>
        </mxCell>
        <mxCell id="aH7YUtAxmmMZdRpmc2YQ-29" value="Then PM move tasks to Colum &quot;&lt;b&gt;Done&lt;/b&gt;&quot; after assign new tasks for &lt;b&gt;Development&lt;/b&gt;&amp;nbsp;&lt;b&gt;team &lt;/b&gt;with all dependencies." style="rounded=0;whiteSpace=wrap;html=1;shadow=1;" vertex="1" parent="1">
          <mxGeometry x="820" y="1470" width="280" height="90" as="geometry" />
        </mxCell>
        <mxCell id="aH7YUtAxmmMZdRpmc2YQ-30" value="" style="shape=partialRectangle;whiteSpace=wrap;html=1;bottom=1;right=1;left=1;top=0;fillColor=none;routingCenterX=-0.5;direction=south;" vertex="1" parent="1">
          <mxGeometry x="730" y="1340" width="90" height="180" as="geometry" />
        </mxCell>
        <mxCell id="aH7YUtAxmmMZdRpmc2YQ-31" value="" style="line;strokeWidth=1;html=1;" vertex="1" parent="1">
          <mxGeometry x="670" y="1410" width="60" height="10" as="geometry" />
        </mxCell>
      </root>
    </mxGraphModel>
  </diagram>
</mxfile>
